<svg width="60" height="60" viewBox="0 0 60 60" fill="none" xmlns="http://www.w3.org/2000/svg">
<rect opacity="0.2" width="60" height="60" rx="15" fill="#E77B2B"/>
<path d="M26.6247 40.8237V45.75H18.7497V41.25L15.3904 37.4824C14.6176 36.6162 14.2103 35.4833 14.2519 34.3234L14.6401 23.7045C14.6333 22.9002 15.2363 22.2218 16.0351 22.1352C16.8473 22.0463 17.6101 22.5953 17.7428 23.4019C17.9476 24.6439 18.1861 27.912 18.3087 29.7267C17.6944 30.63 17.5122 31.8045 17.9307 32.88L18.9229 35.4304C19.0883 35.8545 19.5698 36.0807 20.0153 35.9108C20.4496 35.742 20.6644 35.2527 20.4957 34.8173C20.5576 34.977 19.5822 32.4705 19.5034 32.268C19.1918 31.4648 19.5394 30.495 20.3539 30.0979C21.1887 29.6895 22.2462 30.0563 22.6534 30.8877L25.8226 37.3632C26.3502 38.4398 26.6247 39.6244 26.6247 40.8237Z" fill="#E77B2B"/>
<path d="M34.1771 37.362L37.3463 30.8865C37.7535 30.0551 38.811 29.6883 39.6457 30.0967C40.4209 30.4736 40.7899 31.3815 40.5176 32.1915C40.4389 32.4243 39.4601 34.9286 39.504 34.8161C39.3352 35.2515 39.5501 35.7397 39.9844 35.9096C40.4299 36.0806 40.9114 35.8545 41.0768 35.4292L42.069 32.8788C42.4864 31.8045 42.3041 30.6288 41.691 29.7255C41.8136 27.9108 42.0521 24.6427 42.2569 23.4007C42.3896 22.5941 43.1524 22.0462 43.9646 22.134C44.7634 22.2217 45.3664 22.9001 45.3596 23.7033L45.7477 34.3222C45.7905 35.4821 45.3821 36.615 44.6093 37.4812L41.25 41.25V45.75H33.375V40.8236C33.375 39.6243 33.6495 38.4397 34.1771 37.362Z" fill="#E77B2B"/>
<path d="M21.1725 20.8931C20.8429 20.3654 21.0026 19.6724 21.5291 19.3428L29.4041 14.4209C29.7686 14.1937 30.2321 14.1937 30.5978 14.4209L38.4671 19.3394C38.9936 19.6691 39.1534 20.3632 38.8238 20.8897C38.4953 21.4173 37.8011 21.5782 37.2735 21.2474L30.0004 16.7013L22.7216 21.2508C22.194 21.5816 21.4999 21.4173 21.1725 20.8931Z" fill="#E77B2B"/>
<path d="M36.75 22.9102V28.8749H32.25V23.8124C32.25 23.5019 31.998 23.2499 31.6875 23.2499H28.3125C28.002 23.2499 27.75 23.5019 27.75 23.8124V28.8749H23.25V22.9102L30 18.6914L36.75 22.9102Z" fill="#E77B2B"/>
</svg>
