<svg width="174" height="59" viewBox="0 0 174 59" fill="none" xmlns="http://www.w3.org/2000/svg">
<rect width="173.255" height="59" rx="10" fill="black"/>
<path fill-rule="evenodd" clip-rule="evenodd" d="M68.1558 36.6481H62.8649L61.5943 40.5332H59.3532L64.3647 26.1595H66.6931L71.7045 40.5332H69.4253L68.1558 36.6481ZM63.4128 34.8554H67.6068L65.5393 28.5502H65.4814L63.4128 34.8554ZM82.5276 35.294C82.5276 38.5505 80.8444 40.6428 78.3043 40.6428C76.9913 40.714 75.7546 40.0018 75.1201 38.8094H75.0721V44H72.9948V30.0536H75.0055V31.7966H75.0437C75.7063 30.6116 76.9444 29.8998 78.2661 29.944C80.8345 29.944 82.5276 32.0464 82.5276 35.294ZM80.3925 35.294C80.3925 33.1723 79.3336 31.7774 77.7181 31.7774C76.1309 31.7774 75.0634 33.2017 75.0634 35.294C75.0634 37.4055 76.1309 38.8196 77.7181 38.8196C79.3336 38.8196 80.3925 37.4349 80.3925 35.294ZM93.6662 35.294C93.6662 38.5505 91.983 40.6428 89.4428 40.6428C88.1299 40.714 86.8931 40.0018 86.2587 38.8094H86.2106V44H84.1333V30.0536H86.144V31.7966H86.1822C86.8449 30.6116 88.0829 29.8998 89.4046 29.944C91.9731 29.944 93.6662 32.0464 93.6662 35.294ZM91.531 35.294C91.531 33.1723 90.4722 31.7774 88.8566 31.7774C87.2695 31.7774 86.2019 33.2017 86.2019 35.294C86.2019 37.4055 87.2695 38.8196 88.8566 38.8196C90.4722 38.8196 91.531 37.4349 91.531 35.294ZM101.028 36.5283C101.182 37.9537 102.519 38.8896 104.346 38.8896C106.097 38.8896 107.357 37.9537 107.357 36.6684C107.357 35.5528 106.597 34.8847 104.798 34.4269L102.999 33.9782C100.45 33.3406 99.2671 32.1063 99.2671 30.1033C99.2671 27.6233 101.354 25.9198 104.318 25.9198C107.251 25.9198 109.262 27.6233 109.329 30.1033H107.232C107.107 28.6689 105.962 27.803 104.288 27.803C102.615 27.803 101.47 28.679 101.47 29.9541C101.47 30.9703 102.201 31.5682 103.99 32.026L105.52 32.4148C108.368 33.1123 109.551 34.2969 109.551 36.3994C109.551 39.0885 107.482 40.7727 104.192 40.7727C101.114 40.7727 99.0357 39.1281 98.9014 36.5282L101.028 36.5283ZM114.034 27.5736V30.0536H115.959V31.7571H114.034V37.5343C114.034 38.4318 114.419 38.8501 115.265 38.8501C115.494 38.846 115.722 38.8293 115.949 38.8003V40.4936C115.568 40.5672 115.182 40.6005 114.795 40.5931C112.746 40.5931 111.947 39.7962 111.947 37.7638V31.7571H110.476V30.0536H111.947V27.5736H114.034ZM117.073 35.294C117.073 31.9967 118.948 29.9248 121.873 29.9248C124.807 29.9248 126.674 31.9967 126.674 35.294C126.674 38.6003 124.817 40.6632 121.873 40.6632C118.93 40.6632 117.073 38.6003 117.073 35.294ZM124.557 35.294C124.557 33.0321 123.556 31.6972 121.873 31.6972C120.19 31.6972 119.19 33.0423 119.19 35.294C119.19 37.5649 120.19 38.8897 121.873 38.8897C123.556 38.8897 124.557 37.5649 124.557 35.294ZM128.386 30.0536H130.368V31.8373H130.416C130.692 30.6891 131.708 29.8988 132.85 29.9439C133.089 29.9431 133.328 29.97 133.562 30.0242V32.0362C133.259 31.9406 132.944 31.8967 132.628 31.9063C132.018 31.8806 131.426 32.1326 131.01 32.5962C130.594 33.0597 130.394 33.6885 130.464 34.3173V40.5332H128.386L128.386 30.0536ZM143.139 37.4552C142.86 39.3576 141.071 40.6632 138.782 40.6632C135.838 40.6632 134.01 38.6206 134.01 35.3437C134.01 32.0566 135.847 29.9247 138.694 29.9247C141.494 29.9247 143.255 31.9164 143.255 35.0939V35.8309H136.107V35.9609C136.04 36.7411 136.301 37.5133 136.821 38.0813C137.342 38.6492 138.074 38.958 138.83 38.9292C139.838 39.027 140.788 38.4276 141.167 37.4552L143.139 37.4552ZM136.117 34.3275L141.176 34.3275C141.214 33.6264 140.968 32.9409 140.497 32.436C140.025 31.9311 139.372 31.6527 138.694 31.6678C138.011 31.6635 137.354 31.9421 136.87 32.4416C136.386 32.941 136.115 33.62 136.117 34.3275ZM63.1525 15.3403C64.0344 15.2748 64.8981 15.6222 65.5061 16.287C66.114 16.9518 66.402 17.8638 66.2908 18.7721C66.2908 20.9785 65.1392 22.2469 63.1525 22.2469H60.7434V15.3403H63.1525ZM61.7793 21.2701H63.0368C63.667 21.3091 64.2807 21.052 64.7074 20.5701C65.1341 20.0883 65.3284 19.433 65.2363 18.7862C65.3217 18.142 65.1246 17.4921 64.6989 17.0142C64.2733 16.5362 63.6637 16.2803 63.0368 16.3163H61.7793V21.2701ZM67.461 19.6385C67.3747 18.7042 67.8073 17.8001 68.5774 17.3053C69.3474 16.8104 70.3218 16.8104 71.0919 17.3053C71.862 17.8001 72.2946 18.7042 72.2083 19.6385C72.2962 20.5737 71.864 21.4796 71.0933 21.9755C70.3225 22.4714 69.3468 22.4714 68.576 21.9755C67.8052 21.4796 67.373 20.5737 67.461 19.6385ZM71.1866 19.6385C71.1866 18.5087 70.6964 17.848 69.8363 17.848C68.9728 17.848 68.4871 18.5087 68.4871 19.6385C68.4871 20.7773 68.9729 21.4329 69.8363 21.4329C70.6965 21.4329 71.1866 20.7728 71.1866 19.6385ZM78.5188 22.2468H77.4883L76.448 18.408H76.3694L75.3335 22.2468H74.3129L72.9255 17.0347H73.933L74.8347 21.0118H74.9089L75.9437 17.0347H76.8967L77.9315 21.0118H78.0101L78.9074 17.0347H79.9007L78.5188 22.2468ZM81.0676 17.0347H82.0239V17.8626H82.0981C82.3562 17.253 82.9594 16.8801 83.6001 16.9341C84.0962 16.8954 84.5823 17.0925 84.9213 17.4696C85.2602 17.8467 85.4151 18.363 85.3423 18.8726V22.2467H84.3489V19.1309C84.3489 18.2933 83.9975 17.8768 83.2628 17.8768C82.9263 17.8606 82.5998 17.9973 82.3688 18.2512C82.1377 18.5051 82.0253 18.8507 82.061 19.1976V22.2468H81.0676L81.0676 17.0347ZM86.9251 15H87.9184V22.2467H86.9251V15ZM89.2993 19.6385C89.2131 18.7042 89.6457 17.8 90.4159 17.3052C91.186 16.8103 92.1605 16.8103 92.9306 17.3052C93.7007 17.8 94.1334 18.7042 94.0471 19.6385C94.135 20.5737 93.7027 21.4796 92.9319 21.9755C92.1611 22.4714 91.1853 22.4714 90.4145 21.9755C89.6437 21.4796 89.2115 20.5737 89.2993 19.6385ZM93.0249 19.6385C93.0249 18.5087 92.5347 17.848 91.6746 17.848C90.8111 17.848 90.3254 18.5087 90.3254 19.6385C90.3254 20.7773 90.8112 21.4329 91.6746 21.4329C92.5348 21.4329 93.0249 20.7728 93.0249 19.6385ZM95.0929 20.7728C95.0929 19.8346 95.7675 19.2937 96.965 19.2168L98.3284 19.1354V18.6856C98.3284 18.1351 97.9769 17.8242 97.2979 17.8242C96.7434 17.8242 96.3591 18.035 96.2489 18.4035H95.2872C95.3887 17.5083 96.202 16.9341 97.3437 16.9341C98.6056 16.9341 99.3173 17.5846 99.3173 18.6856V22.2468H98.3611V21.5143H98.2825C97.9577 22.0492 97.3802 22.3618 96.7707 22.3326C96.3434 22.3787 95.9172 22.2354 95.5976 21.9382C95.2779 21.641 95.0946 21.2176 95.0929 20.7728ZM98.3284 20.3274V19.8917L97.0992 19.973C96.4061 20.0211 96.0917 20.2652 96.0917 20.7247C96.0917 21.1938 96.4847 21.4668 97.025 21.4668C97.3449 21.5003 97.6643 21.398 97.91 21.1832C98.1556 20.9684 98.3066 20.6596 98.3284 20.3274ZM100.623 19.6385C100.623 17.9915 101.44 16.9482 102.712 16.9482C103.354 16.9176 103.956 17.2739 104.256 17.8626H104.33V15H105.323V22.2467H104.371V21.4233H104.293C103.97 22.0071 103.361 22.3574 102.712 22.3326C101.432 22.3327 100.623 21.2894 100.623 19.6385ZM101.649 19.6385C101.649 20.744 102.152 21.4092 102.994 21.4092C103.831 21.4092 104.348 20.7344 104.348 19.643C104.348 18.5567 103.826 17.8723 102.994 17.8723C102.158 17.8723 101.649 18.542 101.649 19.6385ZM109.433 19.6385C109.347 18.7042 109.779 17.8001 110.549 17.3053C111.32 16.8104 112.294 16.8104 113.064 17.3053C113.834 17.8001 114.267 18.7042 114.18 19.6385C114.268 20.5737 113.836 21.4796 113.065 21.9755C112.295 22.4714 111.319 22.4714 110.548 21.9755C109.777 21.4796 109.345 20.5737 109.433 19.6385ZM113.159 19.6385C113.159 18.5087 112.669 17.848 111.808 17.848C110.945 17.848 110.459 18.5087 110.459 19.6385C110.459 20.7773 110.945 21.4329 111.808 21.4329C112.669 21.4329 113.159 20.7728 113.159 19.6385ZM115.513 17.0347H116.469V17.8626H116.544C116.802 17.253 117.405 16.8801 118.046 16.9341C118.542 16.8954 119.028 17.0925 119.367 17.4696C119.706 17.8467 119.861 18.363 119.788 18.8726V22.2467H118.795V19.1309C118.795 18.2933 118.443 17.8768 117.708 17.8768C117.372 17.8606 117.045 17.9973 116.814 18.2512C116.583 18.5051 116.471 18.8507 116.507 19.1976V22.2468H115.513V17.0347ZM125.401 15.737V17.0584H126.491V17.9248H125.401V20.6049C125.401 21.1509 125.618 21.3899 126.113 21.3899C126.239 21.3895 126.366 21.3816 126.491 21.3662V22.223C126.313 22.2561 126.132 22.2736 125.951 22.2756C124.846 22.2756 124.406 21.8732 124.406 20.8683V17.9248H123.607V17.0584H124.406V15.737H125.401ZM127.848 15H128.833V17.8723H128.911C129.182 17.2573 129.796 16.8839 130.446 16.9386C130.939 16.9108 131.419 17.1122 131.754 17.4879C132.089 17.8637 132.245 18.3747 132.18 18.8817V22.2468H131.185V19.1354C131.185 18.3029 130.811 17.8813 130.109 17.8813C129.763 17.8519 129.423 17.982 129.178 18.2368C128.934 18.4916 128.811 18.845 128.842 19.2027V22.2467H127.848L127.848 15ZM137.972 20.8395C137.693 21.8226 136.774 22.4578 135.791 22.3474C135.119 22.3657 134.474 22.0776 134.027 21.5596C133.579 21.0415 133.374 20.3458 133.465 19.6571C133.376 18.9665 133.581 18.2697 134.026 17.7472C134.471 17.2248 135.113 16.9281 135.786 16.9341C137.187 16.9341 138.032 17.9249 138.032 19.5616V19.9205H134.477V19.9781C134.446 20.3649 134.573 20.7475 134.829 21.0317C135.084 21.316 135.443 21.4756 135.818 21.4713C136.304 21.5317 136.777 21.2821 137.015 20.8394L137.972 20.8395ZM134.477 19.1597H137.02C137.045 18.806 136.925 18.4577 136.689 18.2005C136.453 17.9434 136.123 17.8014 135.781 17.8095C135.434 17.805 135.099 17.9458 134.854 18.2001C134.609 18.4543 134.473 18.8003 134.477 19.1597ZM48.5291 29.651C48.5317 32.0793 49.971 34.2707 52.1846 35.2167C51.7589 36.6139 51.1171 37.9344 50.2832 39.1292C49.1633 40.8218 47.989 42.4755 46.1253 42.5061C44.3144 42.5483 43.7058 41.4293 41.6287 41.4293C39.5321 41.4293 38.8834 42.4755 37.1466 42.5483C35.3716 42.6147 34.0152 40.7417 32.8545 39.0649C30.5347 35.6406 28.7283 29.4147 31.15 25.1785C32.2872 23.1138 34.4135 21.8036 36.751 21.7273C38.5275 21.6904 40.1773 22.9395 41.2695 22.9395C42.341 22.9395 44.3795 21.4452 46.4823 21.6682C48.4809 21.7314 50.3331 22.7431 51.48 24.398C49.6702 25.5222 48.5565 27.5047 48.5291 29.651ZM45.1086 19.4162C44.1227 20.6551 42.6288 21.3687 41.0555 21.3523C40.9555 19.7989 41.4707 18.2691 42.4877 17.0997C43.5176 15.9144 44.9517 15.1647 46.5042 15C46.6254 16.5995 46.1248 18.1837 45.1086 19.4162Z" fill="#F5F9FC"/>
</svg>
