<svg width="30" height="30" viewBox="0 0 30 30" fill="none" xmlns="http://www.w3.org/2000/svg">
<path d="M25.5 4.5H24V1.5C24 1.10218 23.842 0.720644 23.5607 0.43934C23.2794 0.158035 22.8978 0 22.5 0C22.1022 0 21.7206 0.158035 21.4393 0.43934C21.158 0.720644 21 1.10218 21 1.5V4.5H9V1.5C9 1.10218 8.84196 0.720644 8.56066 0.43934C8.27936 0.158035 7.89782 0 7.5 0C7.10217 0 6.72064 0.158035 6.43934 0.43934C6.15804 0.720644 6 1.10218 6 1.5V4.5H4.5C3.30653 4.5 2.16193 4.97411 1.31802 5.81802C0.474106 6.66193 0 7.80653 0 9V10.5H30V9C30 7.80653 29.5259 6.66193 28.682 5.81802C27.8381 4.97411 26.6935 4.5 25.5 4.5Z" fill="black"/>
<path d="M0 25.5C0 26.6935 0.474106 27.8381 1.31802 28.682C2.16193 29.5259 3.30653 30 4.5 30H25.5C26.6935 30 27.8381 29.5259 28.682 28.682C29.5259 27.8381 30 26.6935 30 25.5V13.5H0V25.5Z" fill="black"/>
</svg>
