<svg width="60" height="60" viewBox="0 0 60 60" fill="none" xmlns="http://www.w3.org/2000/svg">
<rect opacity="0.2" width="60" height="60" rx="15" fill="#E77B2B"/>
<g clip-path="url(#clip0_39_229)">
<path d="M47.8022 29.3862C47.4809 28.9369 39.8203 18.3983 30.0707 18.3983C20.3203 18.3983 12.5191 28.9369 12.1978 29.3862C11.9341 29.7532 11.9341 30.2475 12.1978 30.6138C12.5191 31.0631 20.3203 41.6017 30.0707 41.6017C39.8203 41.6017 47.4809 31.0631 47.8022 30.6138C48.0659 30.2475 48.0659 29.7532 47.8022 29.3862ZM30.0707 37.3828C26.0002 37.3828 22.5472 34.0704 22.5472 29.9999C22.5472 25.9295 26.0002 22.6171 30.0707 22.6171C34.1412 22.6171 37.4536 25.9295 37.4536 29.9999C37.4536 34.0704 34.1412 37.3828 30.0707 37.3828Z" fill="#E77B2B"/>
<path d="M30.0703 26.8359C28.3252 26.8359 26.7656 28.2555 26.7656 30C26.7656 31.7452 28.3252 33.1641 30.0703 33.1641C31.8148 33.1641 33.2344 31.7452 33.2344 30C33.2344 28.2555 31.8148 26.8359 30.0703 26.8359Z" fill="#E77B2B"/>
</g>
<defs>
<clipPath id="clip0_39_229">
<rect width="36" height="36" fill="white" transform="translate(12 12)"/>
</clipPath>
</defs>
</svg>
