<svg width="24" height="25" viewBox="0 0 24 25" fill="none" xmlns="http://www.w3.org/2000/svg">
<g clip-path="url(#clip0_69_448)">
<path d="M12 24.791C18.6274 24.791 24 19.4184 24 12.791C24 6.1636 18.6274 0.791016 12 0.791016C5.37258 0.791016 0 6.1636 0 12.791C0 19.4184 5.37258 24.791 12 24.791Z" fill="#3A559F"/>
<path d="M15.8017 11.3701L15.5604 13.4606C15.5503 13.5559 15.5056 13.6443 15.4347 13.7089C15.3639 13.7735 15.2717 13.8099 15.1758 13.811H12.994L12.9831 20.0087C12.9838 20.0822 12.9556 20.153 12.9046 20.2058C12.8536 20.2586 12.7838 20.2892 12.7104 20.291H10.4999C10.4631 20.291 10.4268 20.2836 10.3929 20.2693C10.3591 20.2549 10.3286 20.2338 10.3031 20.2073C10.2776 20.1808 10.2578 20.1495 10.2447 20.1151C10.2317 20.0807 10.2257 20.0441 10.2272 20.0074V13.811H8.59081C8.53941 13.8105 8.48862 13.7998 8.44135 13.7797C8.39407 13.7595 8.35122 13.7302 8.31526 13.6935C8.2793 13.6568 8.25092 13.6133 8.23175 13.5656C8.21258 13.518 8.20299 13.467 8.20353 13.4156L8.19535 11.3251C8.19463 11.2735 8.20408 11.2223 8.22315 11.1744C8.24222 11.1265 8.27055 11.0828 8.30651 11.0458C8.34247 11.0088 8.38537 10.9793 8.43274 10.9589C8.48012 10.9385 8.53105 10.9276 8.58262 10.9269H10.2272V8.90874C10.2272 6.56602 11.6181 5.29102 13.6581 5.29102H15.3299C15.3816 5.29155 15.4327 5.30228 15.4802 5.3226C15.5277 5.34292 15.5708 5.37242 15.6069 5.40941C15.643 5.4464 15.6714 5.49016 15.6906 5.53817C15.7098 5.58619 15.7193 5.63751 15.7185 5.6892V7.44829C15.7193 7.49998 15.7098 7.5513 15.6906 7.59931C15.6714 7.64732 15.643 7.69108 15.6069 7.72807C15.5708 7.76507 15.5277 7.79457 15.4802 7.81489C15.4327 7.8352 15.3816 7.84594 15.3299 7.84647H14.3044C13.1958 7.84647 12.9804 8.39192 12.9804 9.18011V10.9269H15.4172C15.4726 10.9276 15.5272 10.94 15.5775 10.9634C15.6278 10.9867 15.6726 11.0204 15.7089 11.0622C15.7452 11.1041 15.7722 11.1532 15.7882 11.2062C15.8043 11.2593 15.8088 11.3151 15.8017 11.3701Z" fill="white"/>
</g>
<defs>
<clipPath id="clip0_69_448">
<rect width="24" height="24" fill="white" transform="translate(0 0.791016)"/>
</clipPath>
</defs>
</svg>
