<svg width="186" height="59" viewBox="0 0 186 59" fill="none" xmlns="http://www.w3.org/2000/svg">
<rect x="0.254883" width="184.886" height="59" rx="10" fill="black"/>
<g clip-path="url(#clip0_104_5162)">
<path d="M40.5277 28.918L30.3447 39.8848C30.4591 40.3014 30.6646 40.6856 30.9455 41.008C31.2264 41.3305 31.5754 41.5826 31.9656 41.7452C32.3559 41.9077 32.7771 41.9764 33.1972 41.946C33.6172 41.9155 34.0249 41.7868 34.3891 41.5696L45.8469 34.8616L40.5277 28.918Z" fill="#EA4335"/>
<path d="M50.8258 27.054L45.8711 24.1367L40.2939 29.1676L45.8938 34.8461L50.8108 31.96C51.2464 31.7256 51.6112 31.373 51.8658 30.9406C52.1204 30.5082 52.255 30.0124 52.255 29.507C52.255 29.0016 52.1204 28.5058 51.8658 28.0734C51.6112 27.6409 51.2464 27.2884 50.8108 27.0539L50.8258 27.054Z" fill="#FBBC04"/>
<path d="M30.346 19.0742C30.2845 19.3081 30.2538 19.5495 30.2549 19.7918V39.167C30.2555 39.4092 30.2862 39.6504 30.346 39.8846L40.8781 29.1986L30.346 19.0742Z" fill="#4285F4"/>
<path d="M40.6036 29.48L45.8697 24.137L34.4271 17.3978C33.9966 17.1386 33.5069 17.0014 33.008 17C31.7699 16.9975 30.6814 17.8422 30.3447 19.0671L40.6036 29.48Z" fill="#34A853"/>
</g>
<path fill-rule="evenodd" clip-rule="evenodd" d="M68.5954 17.8667C68.6333 18.7131 68.3341 19.5387 67.7675 20.1506C67.1343 20.831 66.2513 21.2006 65.3389 21.167C63.9396 21.1556 62.6831 20.2776 62.1505 18.9389C61.618 17.6002 61.913 16.0616 62.8993 15.0346C63.5402 14.3578 64.4233 13.9857 65.3389 14.0068C65.8056 14.0052 66.2677 14.1024 66.6967 14.2923C67.0962 14.459 67.4518 14.7212 67.7344 15.0574L67.1493 15.6627C66.7026 15.113 66.032 14.8127 65.3389 14.8519C64.6422 14.8483 63.9742 15.1386 63.4888 15.6558C63.0035 16.1729 62.7428 16.8723 62.7669 17.5926C62.7521 18.6811 63.3718 19.672 64.3376 20.1041C65.3035 20.5362 66.4258 20.3248 67.1824 19.5682C67.5221 19.1874 67.718 18.6929 67.7344 18.175H65.3389V17.3528H68.5512C68.5807 17.5224 68.5955 17.6944 68.5954 17.8667ZM73.6512 15.0117H70.6707V17.1815H73.3863V18.0037H70.6707V20.1735H73.6512V21.0185H69.7876V14.1667H73.6512V15.0117ZM77.272 21.0185H76.422V15.0117H74.5675V14.1667H79.1707V15.0117H77.272V21.0185ZM82.4161 21.0185V14.1667H83.2661V21.0185H82.4161ZM87.0414 21.0185H86.1914V15.0117H84.3369V14.1667H88.8849V15.0117H87.0414V21.0185ZM97.5063 20.1278C96.1629 21.5098 93.9927 21.5098 92.6492 20.1278C91.3469 18.7017 91.3469 16.4721 92.6492 15.046C93.2917 14.3765 94.1659 14 95.0778 14C95.9897 14 96.8639 14.3765 97.5063 15.046C98.8142 16.4698 98.8142 18.704 97.5063 20.1278ZM93.2784 19.5568C94.2734 20.5818 95.8822 20.5818 96.8771 19.5568C97.8543 18.4424 97.8543 16.7428 96.8771 15.6284C95.8822 14.6034 94.2734 14.6034 93.2784 15.6284C92.3013 16.7428 92.3013 18.4424 93.2784 19.5568ZM99.681 21.0185V14.1667H100.719L103.942 19.4997V14.1667H104.792V21.0185H103.909L100.542 15.4343V21.0185H99.681ZM91.468 31.0108C92.7216 30.9859 93.9311 31.4885 94.8197 32.4034C95.7084 33.3184 96.1999 34.5673 96.1817 35.8641C96.1816 38.5416 94.0856 40.7133 91.4974 40.7175C88.9093 40.7216 86.8067 38.5568 86.7986 35.8793C86.7905 33.2018 88.8799 31.0234 91.468 31.0108ZM91.468 38.8104C92.2002 38.7929 92.8946 38.4701 93.3934 37.9153C93.8922 37.3606 94.1533 36.6209 94.1174 35.8641C94.1145 34.6544 93.3971 33.5694 92.3083 33.1281C91.2195 32.6868 89.9806 32.9788 89.1841 33.8646C88.3876 34.7504 88.1954 36.0498 88.6995 37.1414C89.2036 38.233 90.3015 38.8948 91.468 38.8104ZM81.1908 31.0108H81.1798C82.4333 30.9859 83.6429 31.4885 84.5315 32.4034C85.4201 33.3184 85.9116 34.5673 85.8934 35.8641C85.8934 38.5431 83.7952 40.7154 81.2055 40.7175C78.6159 40.7196 76.5144 38.5507 76.5103 35.8717C76.5063 33.1928 78.6012 31.0171 81.1908 31.0108ZM81.1908 38.8104H81.1798C81.912 38.7929 82.6063 38.4701 83.1051 37.9153C83.604 37.3606 83.865 36.6209 83.8291 35.8641C83.8259 34.6534 83.1071 33.568 82.0169 33.1276C80.9267 32.6873 79.6871 32.9817 78.8918 33.8699C78.0964 34.7581 77.9073 36.0592 78.4149 37.1501C78.9226 38.241 80.0236 38.8996 81.1908 38.8104ZM68.9486 32.5068L75.6493 32.4497C75.7263 32.8751 75.7632 33.3073 75.7597 33.7401C75.8116 35.5167 75.1941 37.2447 74.0376 38.5592C72.7159 39.9909 70.8603 40.7612 68.9486 40.6718C66.2761 40.7794 63.7608 39.3658 62.3936 36.9878C61.0264 34.6098 61.0264 31.6485 62.3936 29.2705C63.7608 26.8924 66.2761 25.4788 68.9486 25.5864C70.8261 25.5696 72.63 26.3399 73.9493 27.7219L72.5473 29.1722C71.5801 28.2061 70.2819 27.6764 68.9376 27.6991C66.0112 27.6991 63.6389 30.1532 63.6389 33.1805C63.6389 36.2078 66.0112 38.662 68.9376 38.662C70.3137 38.7187 71.6488 38.1712 72.6136 37.1546C73.2537 36.444 73.6427 35.5305 73.7175 34.5623H68.9486V32.5068ZM118.966 34.1055L119.198 34.6194L112.917 37.303C113.31 38.2305 114.212 38.8148 115.191 38.7762C116.135 38.7786 117.012 38.2668 117.498 37.4286L119.098 38.5706C118.227 39.9198 116.759 40.7263 115.191 40.7175C113.944 40.7364 112.743 40.23 111.865 39.3147C110.986 38.3994 110.505 37.1538 110.532 35.8641C110.456 34.604 110.887 33.3674 111.724 32.448C112.56 31.5285 113.727 31.0083 114.948 31.0108C116.778 31.0805 118.377 32.3117 118.966 34.1055ZM112.563 35.7271L116.758 33.9228C116.428 33.2498 115.742 32.8454 115.014 32.895C114.324 32.9272 113.675 33.2456 113.214 33.7784C112.753 34.3112 112.518 35.0136 112.563 35.7271ZM107.463 40.432V26.1574H109.528V40.432H107.463ZM104.086 32.0956V31.2963H105.984V39.941C105.984 43.5268 103.986 44.9999 101.569 44.9999C99.7464 45.0112 98.0999 43.8771 97.407 42.1336L99.2063 41.357C99.5825 42.3746 100.516 43.0559 101.569 43.0814C103.114 43.0814 104.074 42.0879 104.074 40.2265V39.5299H104.008C103.388 40.2702 102.482 40.6883 101.536 40.6718C99.0299 40.5461 97.0607 38.4079 97.0607 35.8128C97.0607 33.2176 99.0299 31.0794 101.536 30.9537C102.479 30.9524 103.379 31.3678 104.008 32.0956H104.086ZM101.723 38.8104H101.712C102.43 38.7819 103.104 38.4509 103.58 37.8943C104.055 37.3378 104.29 36.6042 104.229 35.8641C104.284 35.1275 104.048 34.3993 103.576 33.8446C103.105 33.2899 102.436 32.9557 101.723 32.9179C100.247 33.0524 99.1151 34.3313 99.1151 35.8641C99.1151 37.397 100.247 38.6759 101.723 38.8104ZM123.702 26.1574H128.647C130.251 26.0382 131.784 26.8557 132.621 28.2758C133.458 29.6959 133.458 31.4806 132.621 32.9007C131.784 34.3208 130.251 35.1383 128.647 35.0191H125.766V40.432H123.702V26.1574ZM128.636 33.0092L128.68 33.0435C129.988 33.0435 131.048 31.9468 131.048 30.5939C131.048 29.2411 129.988 28.1444 128.68 28.1444H125.755V33.0092H128.636ZM141.364 30.9537L141.419 30.9879C143.77 30.9879 145.603 32.4382 145.603 34.9391V40.432H143.616V39.2901H143.55C142.975 40.2136 141.959 40.7391 140.9 40.6604C140.041 40.7261 139.193 40.4295 138.548 39.838C137.904 39.2465 137.518 38.4104 137.478 37.52C137.478 35.453 139.476 34.3111 141.452 34.3111C142.202 34.3078 142.942 34.4961 143.605 34.8592V34.7108C143.552 34.1621 143.289 33.6584 142.874 33.3127C142.458 32.9669 141.926 32.8082 141.397 32.8722C140.626 32.8069 139.89 33.219 139.52 33.9228L137.688 33.1348C138.384 31.7155 139.828 30.8587 141.364 30.9537ZM141.11 38.7762L141.165 38.8104C142.409 38.7791 143.44 37.8048 143.583 36.5265C143.01 36.1958 142.362 36.0301 141.706 36.0469C140.669 36.0469 139.498 36.4237 139.498 37.5657C139.498 38.4222 140.437 38.7762 141.11 38.7762ZM152.844 31.2963H155.141L149.489 44.7601H147.336L149.433 39.9524L145.757 31.2963H147.965L150.416 37.4857H150.482L152.844 31.2963ZM134.288 40.432V26.1574H136.352V40.432H134.288Z" fill="#F5F9FC"/>
<defs>
<clipPath id="clip0_104_5162">
<rect width="22" height="25" fill="white" transform="translate(30.2549 17)"/>
</clipPath>
</defs>
</svg>
