<svg width="24" height="25" viewBox="0 0 24 25" fill="none" xmlns="http://www.w3.org/2000/svg">
<path d="M12 24.791C18.6274 24.791 24 19.4184 24 12.791C24 6.1636 18.6274 0.791016 12 0.791016C5.37258 0.791016 0 6.1636 0 12.791C0 19.4184 5.37258 24.791 12 24.791Z" fill="url(#paint0_linear_69_441)"/>
<path d="M14.5466 6.12402H9.45327C7.18127 6.12402 5.33594 7.96936 5.33594 10.2414V15.3347C5.33594 17.6067 7.18127 19.452 9.45327 19.452H14.5466C16.8186 19.452 18.6639 17.6067 18.6639 15.3347V10.2414C18.6639 7.96936 16.8186 6.12402 14.5466 6.12402ZM17.1759 15.34C17.1759 16.7907 15.9973 17.9747 14.5413 17.9747H9.44794C7.99727 17.9747 6.81327 16.796 6.81327 15.34V10.2467C6.81327 8.79602 7.99194 7.61202 9.44794 7.61202H14.5413C15.9919 7.61202 17.1759 8.79069 17.1759 10.2467V15.34Z" fill="white"/>
<path d="M11.9978 9.38281C10.1205 9.38281 8.58984 10.9135 8.58984 12.7908C8.58984 14.6681 10.1205 16.1988 11.9978 16.1988C13.8752 16.1988 15.4058 14.6681 15.4058 12.7908C15.4058 10.9135 13.8752 9.38281 11.9978 9.38281ZM11.9978 14.8601C10.8565 14.8601 9.92851 13.9321 9.92851 12.7908C9.92851 11.6495 10.8565 10.7215 11.9978 10.7215C13.1392 10.7215 14.0672 11.6495 14.0672 12.7908C14.0672 13.9321 13.1392 14.8601 11.9978 14.8601Z" fill="white"/>
<path d="M15.663 9.75629C15.977 9.70539 16.1902 9.4096 16.1393 9.09562C16.0884 8.78164 15.7926 8.56837 15.4787 8.61927C15.1647 8.67016 14.9514 8.96596 15.0023 9.27994C15.0532 9.59392 15.349 9.80719 15.663 9.75629Z" fill="white"/>
<defs>
<linearGradient id="paint0_linear_69_441" x1="2.86288" y1="21.9281" x2="19.9162" y2="4.8748" gradientUnits="userSpaceOnUse">
<stop stop-color="#FEE411"/>
<stop offset="0.0518459" stop-color="#FEDB16"/>
<stop offset="0.1381" stop-color="#FEC125"/>
<stop offset="0.2481" stop-color="#FE983D"/>
<stop offset="0.3762" stop-color="#FE5F5E"/>
<stop offset="0.5" stop-color="#FE2181"/>
<stop offset="1" stop-color="#9000DC"/>
</linearGradient>
</defs>
</svg>
