<svg width="24" height="25" viewBox="0 0 24 25" fill="none" xmlns="http://www.w3.org/2000/svg">
<g clip-path="url(#clip0_69_454)">
<path d="M12 24.791C18.6274 24.791 24 19.4184 24 12.791C24 6.1636 18.6274 0.791016 12 0.791016C5.37258 0.791016 0 6.1636 0 12.791C0 19.4184 5.37258 24.791 12 24.791Z" fill="#007AB9"/>
<path d="M19.1707 13.7561V18.7035H16.3024V14.0877C16.3024 12.9287 15.8883 12.1372 14.8497 12.1372C14.0572 12.1372 13.5864 12.6701 13.3785 13.186C13.3029 13.3704 13.2835 13.6265 13.2835 13.8851V18.7032H10.4149C10.4149 18.7032 10.4534 10.8856 10.4149 10.0764H13.2837V11.2989C13.2779 11.3085 13.2698 11.3179 13.2647 11.3271H13.2837V11.2989C13.6649 10.7124 14.3447 9.87383 15.8688 9.87383C17.7559 9.87383 19.1707 11.1068 19.1707 13.7561ZM7.41417 5.91797C6.43296 5.91797 5.79102 6.56206 5.79102 7.40829C5.79102 8.23655 6.41435 8.89925 7.37653 8.89925H7.39514C8.3956 8.89925 9.01765 8.23655 9.01765 7.40829C8.99862 6.56206 8.3956 5.91797 7.41417 5.91797ZM5.9615 18.7035H8.82898V10.0764H5.9615V18.7035Z" fill="#F1F2F2"/>
</g>
<defs>
<clipPath id="clip0_69_454">
<rect width="24" height="24" fill="white" transform="translate(0 0.791016)"/>
</clipPath>
</defs>
</svg>
