<svg width="60" height="60" viewBox="0 0 60 60" fill="none" xmlns="http://www.w3.org/2000/svg">
<rect opacity="0.2" width="60" height="60" rx="15" fill="#E77B2B"/>
<g clip-path="url(#clip0_39_216)">
<path d="M27.9419 30.5662L31.2943 27.2138C30.5404 26.7326 29.6464 26.4524 28.6876 26.4524C26.0081 26.4524 23.8281 28.6324 23.8281 31.3119C23.8281 33.9914 26.0081 36.1714 28.6876 36.1714C31.3672 36.1714 33.5471 33.9914 33.5471 31.3119C33.5471 30.3532 33.2669 29.4592 32.7857 28.7053L29.4334 32.0576L27.9419 30.5662Z" fill="#E77B2B"/>
<path d="M45.3761 31.3119C45.3761 28.4459 44.6439 25.6431 43.2538 23.1627L39.0985 23.732C40.6525 25.8605 41.5712 28.4807 41.5712 31.3119C41.5712 38.4158 35.7919 44.1952 28.688 44.1952C21.5841 44.1952 15.8048 38.4158 15.8048 31.3119C15.8048 24.2081 21.5842 18.4288 28.688 18.4288C31.5192 18.4288 34.1395 19.3475 36.2679 20.9015L36.8373 16.7461C34.3569 15.3561 31.5541 14.6239 28.688 14.6239C24.2305 14.6239 20.0397 16.3598 16.8878 19.5117C13.7359 22.6636 12 26.8544 12 31.3119C12 35.7695 13.7359 39.9602 16.8878 43.1121C20.0397 46.2642 24.2304 48 28.688 48C33.1456 48 37.3363 46.2641 40.4882 43.1121C43.6402 39.9602 45.3761 35.7695 45.3761 31.3119Z" fill="#E77B2B"/>
<path d="M28.6879 20.5382C22.7472 20.5382 17.9141 25.3713 17.9141 31.3121C17.9141 37.2528 22.7471 42.0859 28.6879 42.0859C34.6287 42.0859 39.4618 37.2528 39.4618 31.3121C39.4618 28.7207 38.5419 26.3403 37.0119 24.4796L34.3026 27.1889C35.1534 28.3443 35.6569 29.7704 35.6569 31.3121C35.6569 35.1547 32.5306 38.2809 28.688 38.2809C24.8453 38.2809 21.7191 35.1547 21.7191 31.3121C21.7191 27.4694 24.8453 24.3432 28.688 24.3432C30.2296 24.3432 31.6557 24.8467 32.8111 25.6975L35.5205 22.9881C33.6597 21.458 31.2793 20.5382 28.6879 20.5382Z" fill="#E77B2B"/>
<path d="M43.6618 12L38.974 16.6878L38.2852 21.7144L43.3118 21.0256L47.9996 16.3378L44.8354 15.1642L43.6618 12Z" fill="#E77B2B"/>
</g>
<defs>
<clipPath id="clip0_39_216">
<rect width="36" height="36" fill="white" transform="translate(12 12)"/>
</clipPath>
</defs>
</svg>
