<svg width="60" height="60" viewBox="0 0 60 60" fill="none" xmlns="http://www.w3.org/2000/svg">
<rect opacity="0.2" width="60" height="60" rx="15" fill="#E77B2B"/>
<path fill-rule="evenodd" clip-rule="evenodd" d="M32.7983 41.1038L35.4162 46.7269C35.5037 46.9149 35.7659 46.9268 35.8701 46.7475L37.8511 43.3384L41.7353 44.017C41.9398 44.0527 42.0993 43.8446 42.0117 43.6565L38.9143 37.0036C38.2762 37.3333 37.504 38.7685 37.0885 39.4038C36.1494 40.8398 34.4472 41.5055 32.7983 41.1038ZM30.3632 27.4719L40.9429 15.2898C41.5052 14.7219 42.4224 14.7203 42.9887 15.2834C43.5548 15.8464 43.5566 16.7611 42.9949 17.3279C41.0688 19.2718 33.3259 28.6135 31.3908 30.5486C30.8252 31.1143 29.9075 31.1143 29.3418 30.5486L25.3252 26.5319C24.7595 25.9663 24.7595 25.0486 25.3252 24.4829C25.8908 23.9171 26.8086 23.9171 27.3742 24.4829L30.3632 27.4719ZM31.7248 13.7078C34.2576 15.6037 33.8835 15.5118 37.1858 15.6955C37.7516 15.727 38.271 15.9132 38.7012 16.2183L35.5052 19.8765C34.0057 18.6492 32.0891 17.9125 30.0002 17.9125C25.1967 17.9125 21.3027 21.8066 21.3027 26.6101C21.3027 31.4137 25.1967 35.3078 30.0002 35.3078C34.8038 35.3078 38.6978 31.4137 38.6978 26.6101C38.6978 25.8178 38.5913 25.0503 38.3927 24.3209C39.2611 23.316 40.1287 22.3104 40.9992 21.3073L42.7338 22.9454C43.6766 23.8358 43.9177 25.1848 43.3327 26.3421C41.8096 29.3553 41.9229 28.7129 42.3236 32.0654C42.4775 33.353 41.7911 34.5418 40.599 35.0524C37.4954 36.3816 37.9951 35.9623 36.1471 38.7879C35.4373 39.8732 34.1474 40.3428 32.906 39.9676C29.6741 38.9909 30.3264 38.9909 27.0945 39.9676C25.8531 40.3427 24.5632 39.8732 23.8534 38.7879C22.0054 35.9623 22.5051 36.3816 19.4015 35.0524C18.2094 34.5418 17.523 33.353 17.6769 32.0654L17.934 29.9149C18.0042 29.3267 17.9121 28.8036 17.6448 28.275L16.6677 26.3421C16.0827 25.1848 16.3211 23.8328 17.2667 22.9454C19.7284 20.6349 19.4023 21.1998 20.1724 17.9125C20.4682 16.6498 21.5198 15.7674 22.8146 15.6954C26.1856 15.5079 25.5727 15.731 28.2756 13.7078C29.3139 12.9307 30.6866 12.9307 31.7248 13.7078ZM27.2022 41.1037C25.5533 41.5054 23.8511 40.8398 22.9118 39.4037C22.4964 38.7684 21.7242 37.333 21.0861 37.0034L17.9887 43.6563C17.9011 43.8445 18.0606 44.0527 18.2651 44.0169L22.1493 43.3382L24.1304 46.7474C24.2346 46.9265 24.4967 46.9147 24.5842 46.7268L27.2022 41.1037Z" fill="#E77B2B"/>
</svg>
