<svg width="60" height="60" viewBox="0 0 60 60" fill="none" xmlns="http://www.w3.org/2000/svg">
<rect opacity="0.2" width="60" height="60" rx="15" fill="#E77B2B"/>
<path d="M37.7959 20.6174C38.2213 21.5337 38.5384 22.4965 38.7409 23.4862C40.2792 24.3215 41.6013 25.5043 42.6021 26.9404C43.6029 28.3765 44.2548 30.0263 44.5059 31.7586C44.7571 33.4909 44.6005 35.2579 44.0487 36.9191C43.4968 38.5803 42.565 40.0898 41.3273 41.3275C40.0895 42.5652 38.58 43.4971 36.9189 44.0489C35.2577 44.6007 33.4907 44.7573 31.7584 44.5062C30.026 44.2551 28.3762 43.6032 26.9401 42.6024C25.504 41.6016 24.3213 40.2794 23.4859 38.7412C22.4962 38.5387 21.5335 38.2215 20.6172 37.7962C21.3668 39.9571 22.6532 41.8922 24.3556 43.4198C26.058 44.9474 28.1206 46.0173 30.3498 46.5293C32.579 47.0413 34.9018 46.9785 37.1001 46.3468C39.2984 45.715 41.3002 44.5352 42.9176 42.9178C44.5349 41.3005 45.7148 39.2987 46.3465 37.1004C46.9782 34.9021 47.041 32.5793 46.5291 30.35C46.0171 28.1208 44.9471 26.0582 43.4195 24.3558C41.892 22.6534 39.9569 21.367 37.7959 20.6174Z" fill="#E77B2B"/>
<path d="M33.3751 19.8751C34.8801 19.8716 36.3749 20.1227 37.7963 20.6176C36.9206 18.7284 35.6017 17.0784 33.9519 15.808C32.302 14.5375 30.3699 13.6841 28.3196 13.3202C26.2693 12.9563 24.1615 13.0926 22.1752 13.7177C20.1889 14.3427 18.3828 15.438 16.9104 16.9104C15.438 18.3828 14.3427 20.1889 13.7177 22.1752C13.0926 24.1615 12.9563 26.2693 13.3202 28.3196C13.6841 30.3699 14.5375 32.302 15.808 33.9519C17.0784 35.6017 18.7284 36.9206 20.6176 37.7963C20.1227 36.3749 19.8716 34.8801 19.8751 33.3751C19.8751 29.7946 21.2974 26.3609 23.8291 23.8291C26.3609 21.2974 29.7946 19.8751 33.3751 19.8751Z" fill="#E77B2B"/>
<path d="M22.125 33.3751C22.1247 35.2493 22.5926 37.0939 23.4863 38.7414C25.5801 39.1669 27.7468 39.0672 29.7928 38.4512C31.8387 37.8352 33.7003 36.7221 35.2111 35.2112C36.722 33.7004 37.8351 31.8388 38.4511 29.7929C39.0671 27.7469 39.1668 25.5802 38.7413 23.4864C37.0276 22.5563 35.1017 22.0876 33.1523 22.1262C31.203 22.1648 29.2971 22.7094 27.6216 23.7065C25.9461 24.7036 24.5586 26.1191 23.595 27.8141C22.6314 29.509 22.1248 31.4254 22.125 33.3751Z" fill="#E77B2B"/>
</svg>
