<svg width="215" height="43" viewBox="0 0 215 43" fill="none" xmlns="http://www.w3.org/2000/svg">
<mask id="path-1-outside-1_114_575" maskUnits="userSpaceOnUse" x="-1" y="-1" width="217" height="45" fill="black">
<rect fill="white" x="-1" y="-1" width="217" height="45"/>
<path d="M35.18 43V15.04L24.26 35.86H19.64L8.72 15.04V43H0.44V0.399998H9.32L21.92 24.64L34.64 0.399998H43.46V43H35.18ZM88.1741 0.399998V43H79.9541V24.82H60.6341V43H52.3541V0.399998H60.6341V17.62H79.9541V0.399998H88.1741ZM108.641 0.399998H117.041L132.701 43H124.181L120.221 32.38H105.341L101.441 43H92.9211L108.641 0.399998ZM118.721 26.56L112.841 8.98L106.721 26.56H118.721ZM137.374 43V0.399998H152.854C157.494 0.399998 161.374 1.36 164.494 3.28C167.614 5.16 169.954 7.72 171.514 10.96C173.074 14.16 173.854 17.72 173.854 21.64C173.854 25.96 172.994 29.72 171.274 32.92C169.554 36.12 167.114 38.6 163.954 40.36C160.834 42.12 157.134 43 152.854 43H137.374ZM165.514 21.64C165.514 18.88 165.014 16.46 164.014 14.38C163.014 12.26 161.574 10.62 159.694 9.46C157.814 8.26 155.534 7.66 152.854 7.66H145.654V35.74H152.854C155.574 35.74 157.874 35.14 159.754 33.94C161.634 32.7 163.054 31.02 164.014 28.9C165.014 26.74 165.514 24.32 165.514 21.64ZM190.262 0.399998H198.662L214.322 43H205.802L201.842 32.38H186.962L183.062 43H174.542L190.262 0.399998ZM200.342 26.56L194.462 8.98L188.342 26.56H200.342Z"/>
</mask>
<path d="M35.18 43H34.18V44H35.18V43ZM35.18 15.04H36.18L34.2944 14.5755L35.18 15.04ZM24.26 35.86V36.86H24.8647L25.1456 36.3245L24.26 35.86ZM19.64 35.86L18.7544 36.3245L19.0353 36.86H19.64V35.86ZM8.72 15.04L9.60558 14.5755L7.72 15.04H8.72ZM8.72 43V44H9.72V43H8.72ZM0.44 43H-0.56V44H0.44V43ZM0.44 0.399998V-0.600002H-0.56V0.399998H0.44ZM9.32 0.399998L10.2073 -0.0612164L9.92723 -0.600002H9.32V0.399998ZM21.92 24.64L21.0327 25.1012L21.9158 26.8001L22.8055 25.1047L21.92 24.64ZM34.64 0.399998V-0.600002H34.0354L33.7545 -0.0646648L34.64 0.399998ZM43.46 0.399998H44.46V-0.600002H43.46V0.399998ZM43.46 43V44H44.46V43H43.46ZM36.18 43V15.04H34.18V43H36.18ZM34.2944 14.5755L23.3744 35.3955L25.1456 36.3245L36.0656 15.5045L34.2944 14.5755ZM24.26 34.86H19.64V36.86H24.26V34.86ZM20.5256 35.3955L9.60558 14.5755L7.83442 15.5045L18.7544 36.3245L20.5256 35.3955ZM7.72 15.04V43H9.72V15.04H7.72ZM8.72 42H0.44V44H8.72V42ZM1.44 43V0.399998H-0.56V43H1.44ZM0.44 1.4H9.32V-0.600002H0.44V1.4ZM8.43271 0.861212L21.0327 25.1012L22.8073 24.1788L10.2073 -0.0612164L8.43271 0.861212ZM22.8055 25.1047L35.5255 0.86466L33.7545 -0.0646648L21.0345 24.1753L22.8055 25.1047ZM34.64 1.4H43.46V-0.600002H34.64V1.4ZM42.46 0.399998V43H44.46V0.399998H42.46ZM43.46 42H35.18V44H43.46V42ZM88.1741 0.399998H89.1741V-0.600002H88.1741V0.399998ZM88.1741 43V44H89.1741V43H88.1741ZM79.9541 43H78.9541V44H79.9541V43ZM79.9541 24.82H80.9541V23.82H79.9541V24.82ZM60.6341 24.82V23.82H59.6341V24.82H60.6341ZM60.6341 43V44H61.6341V43H60.6341ZM52.3541 43H51.3541V44H52.3541V43ZM52.3541 0.399998V-0.600002H51.3541V0.399998H52.3541ZM60.6341 0.399998H61.6341V-0.600002H60.6341V0.399998ZM60.6341 17.62H59.6341V18.62H60.6341V17.62ZM79.9541 17.62V18.62H80.9541V17.62H79.9541ZM79.9541 0.399998V-0.600002H78.9541V0.399998H79.9541ZM87.1741 0.399998V43H89.1741V0.399998H87.1741ZM88.1741 42H79.9541V44H88.1741V42ZM80.9541 43V24.82H78.9541V43H80.9541ZM79.9541 23.82H60.6341V25.82H79.9541V23.82ZM59.6341 24.82V43H61.6341V24.82H59.6341ZM60.6341 42H52.3541V44H60.6341V42ZM53.3541 43V0.399998H51.3541V43H53.3541ZM52.3541 1.4H60.6341V-0.600002H52.3541V1.4ZM59.6341 0.399998V17.62H61.6341V0.399998H59.6341ZM60.6341 18.62H79.9541V16.62H60.6341V18.62ZM80.9541 17.62V0.399998H78.9541V17.62H80.9541ZM79.9541 1.4H88.1741V-0.600002H79.9541V1.4ZM108.641 0.399998V-0.600002H107.944L107.703 0.0538025L108.641 0.399998ZM117.041 0.399998L117.98 0.054966L117.739 -0.600002H117.041V0.399998ZM132.701 43V44H134.134L133.64 42.655L132.701 43ZM124.181 43L123.244 43.3494L123.487 44H124.181V43ZM120.221 32.38L121.158 32.0306L120.915 31.38H120.221V32.38ZM105.341 32.38V31.38H104.643L104.402 32.0353L105.341 32.38ZM101.441 43V44H102.139L102.38 43.3447L101.441 43ZM92.9211 43L91.9829 42.6538L91.4862 44H92.9211V43ZM118.721 26.56V27.56H120.11L119.669 26.2428L118.721 26.56ZM112.841 8.98L113.789 8.6628L112.86 5.88399L111.897 8.65123L112.841 8.98ZM106.721 26.56L105.777 26.2312L105.314 27.56H106.721V26.56ZM108.641 1.4H117.041V-0.600002H108.641V1.4ZM116.103 0.745029L131.763 43.345L133.64 42.655L117.98 0.054966L116.103 0.745029ZM132.701 42H124.181V44H132.701V42ZM125.118 42.6506L121.158 32.0306L119.284 32.7294L123.244 43.3494L125.118 42.6506ZM120.221 31.38H105.341V33.38H120.221V31.38ZM104.402 32.0353L100.502 42.6553L102.38 43.3447L106.28 32.7247L104.402 32.0353ZM101.441 42H92.9211V44H101.441V42ZM93.8593 43.3462L109.579 0.746193L107.703 0.0538025L91.9829 42.6538L93.8593 43.3462ZM119.669 26.2428L113.789 8.6628L111.893 9.2972L117.773 26.8772L119.669 26.2428ZM111.897 8.65123L105.777 26.2312L107.666 26.8888L113.786 9.30877L111.897 8.65123ZM106.721 27.56H118.721V25.56H106.721V27.56ZM137.374 43H136.374V44H137.374V43ZM137.374 0.399998V-0.600002H136.374V0.399998H137.374ZM164.494 3.28L163.969 4.13169L163.977 4.13652L164.494 3.28ZM171.514 10.96L170.613 11.3938L170.615 11.3982L171.514 10.96ZM171.274 32.92L172.154 33.3934L171.274 32.92ZM163.954 40.36L163.467 39.4864L163.462 39.489L163.954 40.36ZM164.014 14.38L163.109 14.8066L163.112 14.8133L164.014 14.38ZM159.694 9.46L159.156 10.3029L159.162 10.307L159.168 10.311L159.694 9.46ZM145.654 7.66V6.66H144.654V7.66H145.654ZM145.654 35.74H144.654V36.74H145.654V35.74ZM159.754 33.94L160.292 34.7829L160.298 34.7789L160.304 34.7748L159.754 33.94ZM164.014 28.9L163.106 28.4799L163.103 28.4875L164.014 28.9ZM138.374 43V0.399998H136.374V43H138.374ZM137.374 1.4H152.854V-0.600002H137.374V1.4ZM152.854 1.4C157.357 1.4 161.044 2.33139 163.969 4.13165L165.018 2.42834C161.703 0.388607 157.63 -0.600002 152.854 -0.600002V1.4ZM163.977 4.13652C166.933 5.91746 169.138 8.33157 170.613 11.3938L172.415 10.5262C170.769 7.10843 168.294 4.40254 165.01 2.42347L163.977 4.13652ZM170.615 11.3982C172.102 14.4484 172.854 17.8563 172.854 21.64H174.854C174.854 17.5837 174.046 13.8716 172.412 10.5218L170.615 11.3982ZM172.854 21.64C172.854 25.8259 172.021 29.4173 170.393 32.4466L172.154 33.3934C173.966 30.0227 174.854 26.0941 174.854 21.64H172.854ZM170.393 32.4466C168.763 35.479 166.459 37.8198 163.467 39.4864L164.44 41.2336C167.768 39.3802 170.344 36.761 172.154 33.3934L170.393 32.4466ZM163.462 39.489C160.519 41.1494 156.995 42 152.854 42V44C157.272 44 161.148 43.0906 164.445 41.231L163.462 39.489ZM152.854 42H137.374V44H152.854V42ZM166.514 21.64C166.514 18.759 165.991 16.1858 164.915 13.9467L163.112 14.8133C164.036 16.7342 164.514 19.001 164.514 21.64H166.514ZM164.918 13.9534C163.841 11.6694 162.274 9.87703 160.219 8.60896L159.168 10.311C160.873 11.363 162.187 12.8506 163.109 14.8066L164.918 13.9534ZM160.232 8.61708C158.161 7.29544 155.685 6.66 152.854 6.66V8.66C155.382 8.66 157.466 9.22456 159.156 10.3029L160.232 8.61708ZM152.854 6.66H145.654V8.66H152.854V6.66ZM144.654 7.66V35.74H146.654V7.66H144.654ZM145.654 36.74H152.854V34.74H145.654V36.74ZM152.854 36.74C155.722 36.74 158.219 36.106 160.292 34.7829L159.216 33.0971C157.528 34.174 155.425 34.74 152.854 34.74V36.74ZM160.304 34.7748C162.347 33.4273 163.889 31.5984 164.925 29.3125L163.103 28.4875C162.218 30.4416 160.92 31.9727 159.203 33.1052L160.304 34.7748ZM164.921 29.3201C165.989 27.0128 166.514 24.4468 166.514 21.64H164.514C164.514 24.1932 164.038 26.4672 163.106 28.4799L164.921 29.3201ZM190.262 0.399998V-0.600002H189.565L189.324 0.0538025L190.262 0.399998ZM198.662 0.399998L199.601 0.054966L199.36 -0.600002H198.662V0.399998ZM214.322 43V44H215.755L215.261 42.655L214.322 43ZM205.802 43L204.865 43.3494L205.108 44H205.802V43ZM201.842 32.38L202.779 32.0306L202.537 31.38H201.842V32.38ZM186.962 32.38V31.38H186.264L186.023 32.0353L186.962 32.38ZM183.062 43V44H183.76L184.001 43.3447L183.062 43ZM174.542 43L173.604 42.6538L173.107 44H174.542V43ZM200.342 26.56V27.56H201.731L201.291 26.2428L200.342 26.56ZM194.462 8.98L195.411 8.6628L194.481 5.88399L193.518 8.65123L194.462 8.98ZM188.342 26.56L187.398 26.2312L186.935 27.56H188.342V26.56ZM190.262 1.4H198.662V-0.600002H190.262V1.4ZM197.724 0.745029L213.384 43.345L215.261 42.655L199.601 0.054966L197.724 0.745029ZM214.322 42H205.802V44H214.322V42ZM206.739 42.6506L202.779 32.0306L200.905 32.7294L204.865 43.3494L206.739 42.6506ZM201.842 31.38H186.962V33.38H201.842V31.38ZM186.023 32.0353L182.123 42.6553L184.001 43.3447L187.901 32.7247L186.023 32.0353ZM183.062 42H174.542V44H183.062V42ZM175.48 43.3462L191.2 0.746193L189.324 0.0538025L173.604 42.6538L175.48 43.3462ZM201.291 26.2428L195.411 8.6628L193.514 9.2972L199.394 26.8772L201.291 26.2428ZM193.518 8.65123L187.398 26.2312L189.287 26.8888L195.407 9.30877L193.518 8.65123ZM188.342 27.56H200.342V25.56H188.342V27.56Z" fill="black" mask="url(#path-1-outside-1_114_575)"/>
</svg>
