<svg width="36" height="36" viewBox="0 0 36 36" fill="none" xmlns="http://www.w3.org/2000/svg">
<g clip-path="url(#clip0_272_1872)">
<path d="M33.5452 29.4546H27.818C24.209 29.4546 21.2727 26.5183 21.2727 22.9093C21.2727 19.3002 24.209 16.364 27.818 16.364H33.5452C33.9974 16.364 34.3634 15.998 34.3634 15.5458V13.0913C34.3634 11.3756 33.0326 9.98024 31.3512 9.84494L26.6523 1.63769C26.2169 0.878631 25.5138 0.336109 24.6724 0.110831C23.835 -0.112912 22.9594 0.00459722 22.2099 0.440809L6.10199 9.81855H3.27294C1.46804 9.81855 0.000244141 11.2863 0.000244141 13.0913V32.7273C0.000244141 34.5322 1.46796 36 3.27294 36H31.0907C32.8956 36 34.3634 34.5323 34.3634 32.7273V30.2728C34.3634 29.8205 33.9974 29.4546 33.5452 29.4546ZM27.667 6.70471L29.4498 9.81855H22.3186L27.667 6.70471ZM9.35421 9.81855L23.0336 1.85499C23.4036 1.63845 23.8358 1.58093 24.2489 1.69123C24.6668 1.80306 25.0152 2.07313 25.2317 2.45105L25.2334 2.45404L12.5843 9.81855H9.35421Z" fill="black"/>
<path d="M33.5449 18.0005H27.8177C25.1107 18.0005 22.9087 20.2025 22.9087 22.9095C22.9087 25.6165 25.1107 27.8185 27.8177 27.8185H33.5449C34.8984 27.8185 35.9994 26.7175 35.9994 25.364V20.455C35.9994 19.1015 34.8984 18.0005 33.5449 18.0005ZM27.8177 24.5458C26.9157 24.5458 26.1814 23.8115 26.1814 22.9095C26.1814 22.0075 26.9157 21.2732 27.8177 21.2732C28.7197 21.2732 29.454 22.0075 29.454 22.9095C29.4541 23.8115 28.7198 24.5458 27.8177 24.5458Z" fill="black"/>
</g>
<defs>
<clipPath id="clip0_272_1872">
<rect width="36" height="36" fill="white"/>
</clipPath>
</defs>
</svg>
