<svg width="24" height="25" viewBox="0 0 24 25" fill="none" xmlns="http://www.w3.org/2000/svg">
<g clip-path="url(#clip0_69_460)">
<path d="M12 0.791016C5.37281 0.791016 0 6.16383 0 12.791C0 19.4182 5.37281 24.791 12 24.791C18.6272 24.791 24 19.4182 24 12.791C24 6.16383 18.6272 0.791016 12 0.791016Z" fill="black"/>
<path d="M13.313 11.7053L18.45 5.73389H17.2327L12.7722 10.9188L9.20961 5.73389H5.10059L10.4879 13.5744L5.10059 19.8363H6.31797L11.0284 14.3609L14.7907 19.8363H18.8998L13.3127 11.7053H13.313ZM6.75661 6.65033H8.62643L17.2333 18.9615H15.3634L6.75661 6.65033Z" fill="white"/>
</g>
<defs>
<clipPath id="clip0_69_460">
<rect width="24" height="24" fill="white" transform="translate(0 0.791016)"/>
</clipPath>
</defs>
</svg>
