<svg width="24" height="25" viewBox="0 0 24 25" fill="none" xmlns="http://www.w3.org/2000/svg">
<g clip-path="url(#clip0_69_465)">
<path d="M12 24.791C18.6274 24.791 24 19.4184 24 12.791C24 6.1636 18.6274 0.791016 12 0.791016C5.37258 0.791016 0 6.1636 0 12.791C0 19.4184 5.37258 24.791 12 24.791Z" fill="#FF0000"/>
<path d="M15.9272 8.27686H8.07352C7.75966 8.27686 7.44889 8.3387 7.15894 8.45885C6.869 8.57901 6.60557 8.75512 6.38372 8.97712C6.16186 9.19912 5.98593 9.46266 5.86597 9.75269C5.746 10.0427 5.68436 10.3535 5.68457 10.6674V14.9147C5.68436 15.2286 5.746 15.5394 5.86597 15.8294C5.98593 16.1195 6.16186 16.383 6.38372 16.605C6.60557 16.827 6.869 17.0031 7.15894 17.1233C7.44889 17.2434 7.75966 17.3053 8.07352 17.3053H15.9272C16.2411 17.3053 16.5518 17.2434 16.8418 17.1233C17.1317 17.0031 17.3951 16.827 17.617 16.605C17.8389 16.383 18.0148 16.1195 18.1348 15.8294C18.2547 15.5394 18.3164 15.2286 18.3161 14.9147V10.6674C18.3164 10.3535 18.2547 10.0427 18.1348 9.75269C18.0148 9.46266 17.8389 9.19912 17.617 8.97712C17.3951 8.75512 17.1317 8.57901 16.8418 8.45885C16.5518 8.3387 16.2411 8.27686 15.9272 8.27686ZM10.3362 14.7269V10.8553L13.6646 12.7911L10.3362 14.7269Z" fill="white"/>
</g>
<defs>
<clipPath id="clip0_69_465">
<rect width="24" height="24" fill="white" transform="translate(0 0.791016)"/>
</clipPath>
</defs>
</svg>
